<?xml version="1.0" encoding="UTF-8"?>
<svg id="Capa_1" data-name="Capa 1" xmlns="http://www.w3.org/2000/svg" viewBox="0 0 38.19 46.22">
  <defs>
    <style>
      .cls-1 {
        fill: #fff;
      }
    </style>
  </defs>
  <path class="cls-1" d="M37.66,42.08l-10.04-14.26c3-2.95,4.87-7.05,4.87-11.58C32.49,7.29,25.2,0,16.25,0S0,7.29,0,16.24s7.29,16.24,16.25,16.24c2.55,0,4.95-.61,7.1-1.65l10.03,14.26c.59,1.05,1.91,1.43,2.97,.87l1.11-.79c.89-.81,.98-2.18,.2-3.1ZM3.7,16.24c0-6.92,5.63-12.55,12.55-12.55s12.55,5.63,12.55,12.55-5.63,12.55-12.55,12.55S3.7,23.16,3.7,16.24Z"/>
</svg>