<?xml version="1.0" encoding="UTF-8"?>
<svg id="Capa_1" data-name="Capa 1" xmlns="http://www.w3.org/2000/svg" viewBox="0 0 169.36 74.99">
  <defs>
    <style>
      .cls-1 {
        fill: #0272ab;
      }

      .cls-2 {
        fill: #db4148;
      }
    </style>
  </defs>
  <g id="logo_corfo" data-name="logo corfo">
    <g id="Grupo_1" data-name="Grupo 1">
      <path id="Trazado_1" data-name="Trazado 1" class="cls-1" d="M143.05,74.98c6.83-.32,13.3-3.17,18.16-7.99,5.44-5.38,8.15-12.18,8.15-20.4,0-7.49-2.14-13.91-6.7-19.01-.15-.16-.36-.25-.57-.26-.41,0-.74,.34-.74,.75h0c0,.07,0,.14,.03,.2,3.37,9.05,1.41,18.15-4.54,20.56-4.16,1.69-9.21-.35-13.19-4.76-.31-.3-.79-.3-1.11,0-.27,.27-.3,.69-.07,1l.08,.09c3.48,3.96,5.33,9.08,5.2,14.34,.15,5.23-1.71,10.31-5.19,14.21-.3,.28-.31,.75-.03,1.05,.14,.15,.34,.24,.54,.23h0Z"/>
      <path id="Trazado_2" data-name="Trazado 2" class="cls-1" d="M87.34,72.46c-.6-.87-1.4-2.17-2.39-3.89-1.1-2-2.33-3.93-3.68-5.77-.76-1-1.67-1.88-2.68-2.62,3.21-1.03,5.31-4.11,5.1-7.48,.11-2.33-.82-4.6-2.55-6.17-2.03-1.6-4.57-2.42-7.15-2.29h-7.16v30.38h4.46v-13.22h.32c.98-.07,1.96,.1,2.86,.49,.71,.44,1.35,.98,1.9,1.6,.85,.93,1.63,1.92,2.32,2.98l1.37,2.37,1.27,2.22,.8,1.2c.12,.17,.2,.3,.24,.37l1.25,2h5.25l-1.52-2.17Zm-10.49-15.86c-1.34,.42-2.75,.6-4.16,.52h-1.42v-8.74h1.12c1.41-.06,2.82,.09,4.19,.43,.77,.27,1.42,.8,1.84,1.5,.44,.71,.66,1.53,.65,2.37,.02,.83-.19,1.64-.58,2.37-.37,.67-.95,1.22-1.64,1.55Z"/>
      <path id="Trazado_3" data-name="Trazado 3" class="cls-1" d="M92.56,44.25h15.24v4.29h-10.73v7.66h10.73v4.27h-10.73v14.16h-4.51v-30.38Z"/>
      <path id="Trazado_4" data-name="Trazado 4" class="cls-1" d="M57.69,48.27c-2.9-2.95-6.89-4.57-11.03-4.46-4.12-.12-8.09,1.5-10.96,4.46-2.91,3.02-4.47,7.08-4.34,11.27-.12,4.11,1.43,8.1,4.31,11.04,2.81,2.91,6.72,4.51,10.76,4.4,4.18,.13,8.24-1.46,11.21-4.4,2.96-2.93,4.57-6.96,4.45-11.12,.12-4.17-1.47-8.21-4.41-11.18Zm-3.32,19.41c-3.94,4.24-10.57,4.48-14.81,.54-.17-.15-.33-.31-.48-.48-2.05-2.23-3.14-5.18-3.04-8.2-.12-3.07,.97-6.07,3.03-8.36,1.98-2.16,4.81-3.36,7.74-3.27,2.88-.05,5.63,1.16,7.55,3.31,2.05,2.21,3.15,5.13,3.07,8.15,.1,3.06-1,6.05-3.06,8.31h0Z"/>
      <path id="Trazado_5" data-name="Trazado 5" class="cls-1" d="M138.22,48.27c-2.9-2.95-6.89-4.57-11.03-4.46-4.12-.12-8.09,1.5-10.95,4.46-2.91,3.02-4.47,7.08-4.33,11.27-.12,4.11,1.43,8.1,4.3,11.04,2.81,2.91,6.72,4.51,10.76,4.4,4.18,.13,8.24-1.46,11.21-4.4,2.96-2.93,4.57-6.96,4.45-11.13,.12-4.17-1.47-8.21-4.41-11.18Zm-3.32,19.41c-3.94,4.24-10.57,4.48-14.81,.54-.16-.15-.32-.31-.48-.47-2.05-2.23-3.14-5.18-3.04-8.21-.12-3.07,.97-6.07,3.03-8.36,1.98-2.17,4.81-3.36,7.74-3.27,2.88-.05,5.63,1.16,7.55,3.31,2.05,2.21,3.15,5.13,3.07,8.15,.09,3.07-1.01,6.05-3.07,8.32h0Z"/>
      <path id="Trazado_6" data-name="Trazado 6" class="cls-1" d="M27.18,67.68c-4.93,4.43-12.4,4.46-17.37,.07-2.28-2.11-3.54-5.1-3.46-8.2-.1-3.15,1.16-6.19,3.45-8.36,2.38-2.22,5.55-3.39,8.8-3.27,3.18-.08,6.27,1.11,8.58,3.31,.03,.03,.05,.05,.07,.08v-4.93c-3.12-1.53-6.53-2.38-10-2.5-4.13-.09-8.11,1.55-10.97,4.53-2.94,2.96-4.55,6.99-4.45,11.16-.02,2.71,.65,5.38,1.94,7.76,1.22,2.32,3.05,4.26,5.28,5.63,2.46,1.43,5.28,2.14,8.12,2.04,3.64,.07,7.22-.83,10.39-2.62v-5.06s-.02,.02-.04,.02c-.11,.12-.23,.24-.34,.35Z"/>
      <path id="Trazado_7" data-name="Trazado 7" class="cls-1" d="M157.91,37.4c-1.03-1.05-2.45-1.62-3.92-1.59-1.46-.04-2.88,.53-3.9,1.59-1.03,1.07-1.59,2.52-1.54,4.01-.04,1.46,.51,2.88,1.53,3.92,1,1.04,2.39,1.61,3.83,1.57,1.49,.05,2.93-.52,3.99-1.57,1.05-1.04,1.63-2.47,1.58-3.96,.04-1.48-.53-2.92-1.57-3.97Z"/>
    </g>
    <g id="Grupo_2" data-name="Grupo 2">
      <rect id="Rect치ngulo_2" data-name="Rect치ngulo 2" class="cls-1" width="63.34" height="18.31"/>
      <rect id="Rect치ngulo_3" data-name="Rect치ngulo 3" class="cls-2" x="63.34" width="77.48" height="18.31"/>
    </g>
  </g>
</svg>