<?xml version="1.0" encoding="UTF-8"?>
<svg id="Capa_1" data-name="Capa 1" xmlns="http://www.w3.org/2000/svg" viewBox="0 0 25.77 21.12">
  <defs>
    <style>
      .cls-1 {
        fill: #221e7c;
      }
    </style>
  </defs>
  <path class="cls-1" d="M15.21,0C10.47,0,6.45,3.14,5.12,7.45l.91,.53c.27-.95,.66-1.84,1.19-2.65,.7,.46,1.51,.86,2.41,1.17-.25,1.06-.38,2.23-.42,3.44,.21,.26,.34,.58,.34,.93s-.12,.64-.32,.9c.08,1.33,.29,2.58,.62,3.7-.79,.26-1.51,.59-2.16,.96-.64-.82-1.14-1.76-1.49-2.77l-.9,.52c1.48,4.04,5.36,6.93,9.9,6.93,5.82,0,10.56-4.74,10.56-10.56S21.03,0,15.21,0ZM7.8,4.52c1.1-1.34,2.55-2.38,4.22-2.97-.9,.97-1.65,2.33-2.15,3.98-.77-.28-1.47-.62-2.07-1.01Zm.55,12.68c.55-.3,1.15-.57,1.81-.79,.48,1.28,1.12,2.34,1.86,3.14-1.4-.5-2.66-1.31-3.67-2.36Zm6.36,2.86c-1.44-.28-2.72-1.79-3.55-3.94,1.11-.28,2.31-.43,3.55-.47v4.41Zm0-5.41c-1.35,.04-2.67,.21-3.88,.52-.35-1.16-.57-2.46-.63-3.84h4.51v3.31Zm0-4.31h-4.53c.02-1.25,.16-2.44,.42-3.54,1.27,.35,2.67,.55,4.11,.58v2.95Zm0-3.95c-1.36-.04-2.67-.22-3.85-.55,.8-2.6,2.22-4.47,3.85-4.8V6.39Zm8.5-1.06c.95,1.45,1.51,3.17,1.55,5.01h-3.52c-.01-1.37-.17-2.66-.44-3.84,.89-.32,1.71-.71,2.41-1.17Zm-.59-.81c-.61,.4-1.31,.73-2.08,1.01-.5-1.65-1.24-3.01-2.15-3.98,1.67,.59,3.12,1.62,4.22,2.97ZM15.71,1.05c1.63,.32,3.05,2.19,3.85,4.79-1.18,.32-2.49,.51-3.85,.55V1.05Zm0,6.34c1.45-.04,2.84-.24,4.11-.59,.25,1.1,.4,2.29,.42,3.54h-4.53v-2.95Zm0,3.95h4.51c-.06,1.37-.28,2.68-.63,3.84-1.21-.31-2.53-.49-3.88-.52v-3.31Zm0,8.72v-4.41c1.24,.03,2.45,.19,3.55,.47-.83,2.15-2.11,3.65-3.55,3.94Zm2.69-.51c.75-.8,1.38-1.87,1.86-3.14,.66,.22,1.26,.48,1.81,.79-1.02,1.05-2.27,1.86-3.67,2.36Zm4.34-3.12c-.65-.38-1.37-.7-2.16-.97,.37-1.24,.59-2.64,.65-4.12h3.51c-.16,1.91-.88,3.66-2,5.09Z"/>
  <polygon class="cls-1" points="8.04 10.88 2.5 7.68 2.5 9.81 0 9.81 0 11.93 2.5 11.93 2.5 14.07 8.04 10.88"/>
</svg>